<mxfile host="app.diagrams.net" modified="2023-05-03T09:14:02.013Z" agent="Mozilla/5.0 (Windows NT 10.0; Win64; x64) AppleWebKit/537.36 (KHTML, like Gecko) Chrome/112.0.0.0 Safari/537.36" etag="Onq7fSxP7ul4mD5c81gV" version="21.2.6" type="device">
  <diagram id="C5RBs43oDa-KdzZeNtuy" name="Page-1">
    <mxGraphModel dx="822" dy="1033" grid="1" gridSize="10" guides="1" tooltips="1" connect="1" arrows="1" fold="1" page="1" pageScale="1" pageWidth="827" pageHeight="1169" math="0" shadow="0">
      <root>
        <mxCell id="WIyWlLk6GJQsqaUBKTNV-0" />
        <mxCell id="WIyWlLk6GJQsqaUBKTNV-1" parent="WIyWlLk6GJQsqaUBKTNV-0" />
        <mxCell id="t2t9TmfUXIdN22y3xSXs-3" value="" style="edgeStyle=none;curved=1;rounded=0;orthogonalLoop=1;jettySize=auto;html=1;fontSize=12;startSize=8;endSize=8;" parent="WIyWlLk6GJQsqaUBKTNV-1" source="t2t9TmfUXIdN22y3xSXs-1" target="t2t9TmfUXIdN22y3xSXs-2" edge="1">
          <mxGeometry relative="1" as="geometry" />
        </mxCell>
        <mxCell id="t2t9TmfUXIdN22y3xSXs-1" value="loadrequest" style="ellipse;whiteSpace=wrap;html=1;fontSize=16;" parent="WIyWlLk6GJQsqaUBKTNV-1" vertex="1">
          <mxGeometry x="180" y="20" width="120" height="80" as="geometry" />
        </mxCell>
        <mxCell id="t2t9TmfUXIdN22y3xSXs-5" value="try" style="edgeStyle=none;curved=1;rounded=0;orthogonalLoop=1;jettySize=auto;html=1;fontSize=12;startSize=8;endSize=8;exitX=0.5;exitY=1;exitDx=0;exitDy=0;" parent="WIyWlLk6GJQsqaUBKTNV-1" source="t2t9TmfUXIdN22y3xSXs-2" target="t2t9TmfUXIdN22y3xSXs-4" edge="1">
          <mxGeometry relative="1" as="geometry" />
        </mxCell>
        <mxCell id="t2t9TmfUXIdN22y3xSXs-2" value="führe aus bis error oder bis return ausgeführt wird" style="shape=process;whiteSpace=wrap;html=1;backgroundOutline=1;fontSize=16;" parent="WIyWlLk6GJQsqaUBKTNV-1" vertex="1">
          <mxGeometry x="180" y="140" width="150" height="80" as="geometry" />
        </mxCell>
        <mxCell id="t2t9TmfUXIdN22y3xSXs-13" value="" style="edgeStyle=none;curved=1;rounded=0;orthogonalLoop=1;jettySize=auto;html=1;fontSize=12;startSize=8;endSize=8;" parent="WIyWlLk6GJQsqaUBKTNV-1" source="t2t9TmfUXIdN22y3xSXs-4" target="t2t9TmfUXIdN22y3xSXs-12" edge="1">
          <mxGeometry relative="1" as="geometry" />
        </mxCell>
        <mxCell id="t2t9TmfUXIdN22y3xSXs-4" value="Frage ab ob ein alter Spielstand geladen werden muss" style="rounded=1;whiteSpace=wrap;html=1;fontSize=16;" parent="WIyWlLk6GJQsqaUBKTNV-1" vertex="1">
          <mxGeometry x="310" y="270" width="120" height="80" as="geometry" />
        </mxCell>
        <mxCell id="t2t9TmfUXIdN22y3xSXs-6" value="except" style="endArrow=classic;html=1;rounded=0;fontSize=12;startSize=8;endSize=8;curved=1;exitX=0.5;exitY=1;exitDx=0;exitDy=0;entryX=0.5;entryY=0;entryDx=0;entryDy=0;" parent="WIyWlLk6GJQsqaUBKTNV-1" source="t2t9TmfUXIdN22y3xSXs-2" target="t2t9TmfUXIdN22y3xSXs-7" edge="1">
          <mxGeometry width="50" height="50" relative="1" as="geometry">
            <mxPoint x="250" y="330" as="sourcePoint" />
            <mxPoint x="120" y="270" as="targetPoint" />
          </mxGeometry>
        </mxCell>
        <mxCell id="t2t9TmfUXIdN22y3xSXs-9" value="" style="edgeStyle=none;curved=1;rounded=0;orthogonalLoop=1;jettySize=auto;html=1;fontSize=12;startSize=8;endSize=8;" parent="WIyWlLk6GJQsqaUBKTNV-1" source="t2t9TmfUXIdN22y3xSXs-7" target="t2t9TmfUXIdN22y3xSXs-8" edge="1">
          <mxGeometry relative="1" as="geometry" />
        </mxCell>
        <mxCell id="t2t9TmfUXIdN22y3xSXs-7" value="Fehlermeldung&lt;br&gt;und Aufforderung zur erneuten Eingabe" style="rounded=1;whiteSpace=wrap;html=1;fontSize=16;" parent="WIyWlLk6GJQsqaUBKTNV-1" vertex="1">
          <mxGeometry x="60" y="280" width="130" height="80" as="geometry" />
        </mxCell>
        <mxCell id="t2t9TmfUXIdN22y3xSXs-8" value="continue" style="whiteSpace=wrap;html=1;fontSize=16;rounded=1;" parent="WIyWlLk6GJQsqaUBKTNV-1" vertex="1">
          <mxGeometry x="30" y="390" width="120" height="30" as="geometry" />
        </mxCell>
        <mxCell id="t2t9TmfUXIdN22y3xSXs-10" value="" style="endArrow=classic;html=1;rounded=0;fontSize=12;startSize=8;endSize=8;curved=1;exitX=0;exitY=0;exitDx=0;exitDy=0;entryX=0.301;entryY=0.94;entryDx=0;entryDy=0;entryPerimeter=0;" parent="WIyWlLk6GJQsqaUBKTNV-1" source="t2t9TmfUXIdN22y3xSXs-8" target="t2t9TmfUXIdN22y3xSXs-1" edge="1">
          <mxGeometry width="50" height="50" relative="1" as="geometry">
            <mxPoint x="250" y="290" as="sourcePoint" />
            <mxPoint x="300" y="240" as="targetPoint" />
            <Array as="points">
              <mxPoint x="40" y="200" />
            </Array>
          </mxGeometry>
        </mxCell>
        <mxCell id="t2t9TmfUXIdN22y3xSXs-18" value="case &quot;n&quot;" style="edgeStyle=none;curved=1;rounded=0;orthogonalLoop=1;jettySize=auto;html=1;exitX=0.5;exitY=1;exitDx=0;exitDy=0;entryX=0.5;entryY=0;entryDx=0;entryDy=0;fontSize=12;startSize=8;endSize=8;" parent="WIyWlLk6GJQsqaUBKTNV-1" source="t2t9TmfUXIdN22y3xSXs-12" target="t2t9TmfUXIdN22y3xSXs-16" edge="1">
          <mxGeometry relative="1" as="geometry" />
        </mxCell>
        <mxCell id="t2t9TmfUXIdN22y3xSXs-19" value="case &quot;j&quot;" style="edgeStyle=none;curved=1;rounded=0;orthogonalLoop=1;jettySize=auto;html=1;exitX=0.5;exitY=1;exitDx=0;exitDy=0;entryX=0.5;entryY=0;entryDx=0;entryDy=0;fontSize=12;startSize=8;endSize=8;" parent="WIyWlLk6GJQsqaUBKTNV-1" source="t2t9TmfUXIdN22y3xSXs-12" target="t2t9TmfUXIdN22y3xSXs-26" edge="1">
          <mxGeometry relative="1" as="geometry">
            <mxPoint x="480" y="534.9999999999998" as="targetPoint" />
          </mxGeometry>
        </mxCell>
        <mxCell id="t2t9TmfUXIdN22y3xSXs-20" value="else" style="edgeStyle=none;curved=1;rounded=0;orthogonalLoop=1;jettySize=auto;html=1;exitX=0;exitY=0.5;exitDx=0;exitDy=0;entryX=0.75;entryY=0;entryDx=0;entryDy=0;fontSize=12;startSize=8;endSize=8;" parent="WIyWlLk6GJQsqaUBKTNV-1" source="t2t9TmfUXIdN22y3xSXs-12" target="t2t9TmfUXIdN22y3xSXs-15" edge="1">
          <mxGeometry relative="1" as="geometry" />
        </mxCell>
        <mxCell id="t2t9TmfUXIdN22y3xSXs-12" value="loadstorage" style="rhombus;whiteSpace=wrap;html=1;fontSize=16;" parent="WIyWlLk6GJQsqaUBKTNV-1" vertex="1">
          <mxGeometry x="331" y="390" width="100" height="70" as="geometry" />
        </mxCell>
        <mxCell id="t2t9TmfUXIdN22y3xSXs-15" value="raise Error" style="rounded=1;whiteSpace=wrap;html=1;fontSize=16;" parent="WIyWlLk6GJQsqaUBKTNV-1" vertex="1">
          <mxGeometry x="140" y="485" width="120" height="30" as="geometry" />
        </mxCell>
        <mxCell id="t2t9TmfUXIdN22y3xSXs-24" value="" style="edgeStyle=none;curved=1;rounded=0;orthogonalLoop=1;jettySize=auto;html=1;fontSize=12;startSize=8;endSize=8;" parent="WIyWlLk6GJQsqaUBKTNV-1" source="t2t9TmfUXIdN22y3xSXs-16" target="t2t9TmfUXIdN22y3xSXs-22" edge="1">
          <mxGeometry relative="1" as="geometry" />
        </mxCell>
        <mxCell id="t2t9TmfUXIdN22y3xSXs-16" value="lädt nichts" style="rounded=1;whiteSpace=wrap;html=1;fontSize=16;" parent="WIyWlLk6GJQsqaUBKTNV-1" vertex="1">
          <mxGeometry x="250" y="540" width="120" height="30" as="geometry" />
        </mxCell>
        <mxCell id="t2t9TmfUXIdN22y3xSXs-22" value="return False" style="rounded=1;whiteSpace=wrap;html=1;fontSize=16;" parent="WIyWlLk6GJQsqaUBKTNV-1" vertex="1">
          <mxGeometry x="250" y="600" width="120" height="40" as="geometry" />
        </mxCell>
        <mxCell id="t2t9TmfUXIdN22y3xSXs-23" style="edgeStyle=none;curved=1;rounded=0;orthogonalLoop=1;jettySize=auto;html=1;exitX=0.25;exitY=0;exitDx=0;exitDy=0;entryX=0.168;entryY=0.066;entryDx=0;entryDy=0;entryPerimeter=0;fontSize=12;startSize=8;endSize=8;" parent="WIyWlLk6GJQsqaUBKTNV-1" source="t2t9TmfUXIdN22y3xSXs-22" target="t2t9TmfUXIdN22y3xSXs-22" edge="1">
          <mxGeometry relative="1" as="geometry" />
        </mxCell>
        <mxCell id="t2t9TmfUXIdN22y3xSXs-26" value="Daten sind vorhanden" style="rhombus;whiteSpace=wrap;html=1;fontSize=16;" parent="WIyWlLk6GJQsqaUBKTNV-1" vertex="1">
          <mxGeometry x="431" y="530" width="80" height="80" as="geometry" />
        </mxCell>
        <mxCell id="t2t9TmfUXIdN22y3xSXs-27" value="true" style="endArrow=classic;html=1;rounded=0;fontSize=12;startSize=8;endSize=8;curved=1;" parent="WIyWlLk6GJQsqaUBKTNV-1" target="t2t9TmfUXIdN22y3xSXs-29" edge="1">
          <mxGeometry width="50" height="50" relative="1" as="geometry">
            <mxPoint x="471" y="610" as="sourcePoint" />
            <mxPoint x="540" y="640" as="targetPoint" />
          </mxGeometry>
        </mxCell>
        <mxCell id="t2t9TmfUXIdN22y3xSXs-28" value="false" style="endArrow=classic;html=1;rounded=0;fontSize=12;startSize=8;endSize=8;curved=1;entryX=0.5;entryY=0;entryDx=0;entryDy=0;" parent="WIyWlLk6GJQsqaUBKTNV-1" target="t2t9TmfUXIdN22y3xSXs-30" edge="1">
          <mxGeometry width="50" height="50" relative="1" as="geometry">
            <mxPoint x="470" y="610" as="sourcePoint" />
            <mxPoint x="420" y="670" as="targetPoint" />
          </mxGeometry>
        </mxCell>
        <mxCell id="t2t9TmfUXIdN22y3xSXs-34" style="edgeStyle=none;curved=1;rounded=0;orthogonalLoop=1;jettySize=auto;html=1;exitX=0;exitY=1;exitDx=0;exitDy=0;entryX=0.5;entryY=0;entryDx=0;entryDy=0;fontSize=12;startSize=8;endSize=8;" parent="WIyWlLk6GJQsqaUBKTNV-1" source="t2t9TmfUXIdN22y3xSXs-29" target="t2t9TmfUXIdN22y3xSXs-31" edge="1">
          <mxGeometry relative="1" as="geometry" />
        </mxCell>
        <mxCell id="t2t9TmfUXIdN22y3xSXs-29" value="setzte load auf true und mache eine entsprechende ausgabe" style="rounded=1;whiteSpace=wrap;html=1;fontSize=16;" parent="WIyWlLk6GJQsqaUBKTNV-1" vertex="1">
          <mxGeometry x="540" y="660" width="150" height="80" as="geometry" />
        </mxCell>
        <mxCell id="t2t9TmfUXIdN22y3xSXs-32" value="" style="edgeStyle=none;curved=1;rounded=0;orthogonalLoop=1;jettySize=auto;html=1;fontSize=12;startSize=8;endSize=8;" parent="WIyWlLk6GJQsqaUBKTNV-1" source="t2t9TmfUXIdN22y3xSXs-30" target="t2t9TmfUXIdN22y3xSXs-31" edge="1">
          <mxGeometry relative="1" as="geometry" />
        </mxCell>
        <mxCell id="t2t9TmfUXIdN22y3xSXs-30" value="setzte load auf false&amp;nbsp;und mache eine entsprechende Ausgabe" style="rounded=1;whiteSpace=wrap;html=1;fontSize=16;" parent="WIyWlLk6GJQsqaUBKTNV-1" vertex="1">
          <mxGeometry x="330" y="650" width="150" height="80" as="geometry" />
        </mxCell>
        <mxCell id="t2t9TmfUXIdN22y3xSXs-31" value="return load" style="whiteSpace=wrap;html=1;fontSize=16;rounded=1;" parent="WIyWlLk6GJQsqaUBKTNV-1" vertex="1">
          <mxGeometry x="440" y="810" width="120" height="40" as="geometry" />
        </mxCell>
        <mxCell id="t2t9TmfUXIdN22y3xSXs-37" value="" style="edgeStyle=none;curved=1;rounded=0;orthogonalLoop=1;jettySize=auto;html=1;fontSize=12;startSize=8;endSize=8;" parent="WIyWlLk6GJQsqaUBKTNV-1" source="t2t9TmfUXIdN22y3xSXs-35" target="t2t9TmfUXIdN22y3xSXs-36" edge="1">
          <mxGeometry relative="1" as="geometry" />
        </mxCell>
        <mxCell id="t2t9TmfUXIdN22y3xSXs-35" value="selectStartingPlayer" style="ellipse;whiteSpace=wrap;html=1;fontSize=16;" parent="WIyWlLk6GJQsqaUBKTNV-1" vertex="1">
          <mxGeometry x="700" y="30" width="160" height="80" as="geometry" />
        </mxCell>
        <mxCell id="t2t9TmfUXIdN22y3xSXs-41" value="" style="edgeStyle=none;curved=1;rounded=0;orthogonalLoop=1;jettySize=auto;html=1;fontSize=12;startSize=8;endSize=8;" parent="WIyWlLk6GJQsqaUBKTNV-1" source="t2t9TmfUXIdN22y3xSXs-36" target="t2t9TmfUXIdN22y3xSXs-40" edge="1">
          <mxGeometry relative="1" as="geometry" />
        </mxCell>
        <mxCell id="t2t9TmfUXIdN22y3xSXs-36" value="bestimme eine zufällige zahl zwischen 1 und 2 und weise sie currentPLayer zu" style="rounded=1;whiteSpace=wrap;html=1;fontSize=16;" parent="WIyWlLk6GJQsqaUBKTNV-1" vertex="1">
          <mxGeometry x="716" y="120" width="130" height="90" as="geometry" />
        </mxCell>
        <mxCell id="t2t9TmfUXIdN22y3xSXs-39" value="return currentPlayer" style="rounded=1;whiteSpace=wrap;html=1;fontSize=16;" parent="WIyWlLk6GJQsqaUBKTNV-1" vertex="1">
          <mxGeometry x="730" y="475" width="120" height="40" as="geometry" />
        </mxCell>
        <mxCell id="t2t9TmfUXIdN22y3xSXs-48" value="false" style="edgeStyle=none;curved=1;rounded=0;orthogonalLoop=1;jettySize=auto;html=1;fontSize=12;startSize=8;endSize=8;exitX=0.5;exitY=1;exitDx=0;exitDy=0;" parent="WIyWlLk6GJQsqaUBKTNV-1" source="t2t9TmfUXIdN22y3xSXs-40" target="t2t9TmfUXIdN22y3xSXs-45" edge="1">
          <mxGeometry relative="1" as="geometry" />
        </mxCell>
        <mxCell id="t2t9TmfUXIdN22y3xSXs-40" value="&lt;br&gt;currentPLayer ==1" style="rhombus;whiteSpace=wrap;html=1;fontSize=16;" parent="WIyWlLk6GJQsqaUBKTNV-1" vertex="1">
          <mxGeometry x="725" y="250" width="110" height="80" as="geometry" />
        </mxCell>
        <mxCell id="t2t9TmfUXIdN22y3xSXs-44" value="true" style="endArrow=classic;html=1;rounded=0;fontSize=12;startSize=8;endSize=8;curved=1;exitX=0.5;exitY=1;exitDx=0;exitDy=0;entryX=0.5;entryY=0;entryDx=0;entryDy=0;" parent="WIyWlLk6GJQsqaUBKTNV-1" source="t2t9TmfUXIdN22y3xSXs-40" target="t2t9TmfUXIdN22y3xSXs-46" edge="1">
          <mxGeometry width="50" height="50" relative="1" as="geometry">
            <mxPoint x="670" y="310" as="sourcePoint" />
            <mxPoint x="720" y="260" as="targetPoint" />
          </mxGeometry>
        </mxCell>
        <mxCell id="t2t9TmfUXIdN22y3xSXs-50" style="edgeStyle=none;curved=1;rounded=0;orthogonalLoop=1;jettySize=auto;html=1;exitX=0.5;exitY=1;exitDx=0;exitDy=0;entryX=0.5;entryY=0;entryDx=0;entryDy=0;fontSize=12;startSize=8;endSize=8;" parent="WIyWlLk6GJQsqaUBKTNV-1" source="t2t9TmfUXIdN22y3xSXs-45" target="t2t9TmfUXIdN22y3xSXs-39" edge="1">
          <mxGeometry relative="1" as="geometry" />
        </mxCell>
        <mxCell id="t2t9TmfUXIdN22y3xSXs-45" value="ausgabe, dass Spieler 2 anfangen darf" style="rounded=1;whiteSpace=wrap;html=1;fontSize=16;" parent="WIyWlLk6GJQsqaUBKTNV-1" vertex="1">
          <mxGeometry x="835" y="360" width="120" height="60" as="geometry" />
        </mxCell>
        <mxCell id="t2t9TmfUXIdN22y3xSXs-49" value="" style="edgeStyle=none;curved=1;rounded=0;orthogonalLoop=1;jettySize=auto;html=1;fontSize=12;startSize=8;endSize=8;" parent="WIyWlLk6GJQsqaUBKTNV-1" source="t2t9TmfUXIdN22y3xSXs-46" target="t2t9TmfUXIdN22y3xSXs-39" edge="1">
          <mxGeometry relative="1" as="geometry" />
        </mxCell>
        <mxCell id="t2t9TmfUXIdN22y3xSXs-46" value="ausgabe dass Spieler 1 anfangen darf" style="rounded=1;whiteSpace=wrap;html=1;fontSize=16;" parent="WIyWlLk6GJQsqaUBKTNV-1" vertex="1">
          <mxGeometry x="630" y="360" width="120" height="60" as="geometry" />
        </mxCell>
        <mxCell id="t2t9TmfUXIdN22y3xSXs-47" style="edgeStyle=none;curved=1;rounded=0;orthogonalLoop=1;jettySize=auto;html=1;exitX=0.75;exitY=1;exitDx=0;exitDy=0;fontSize=12;startSize=8;endSize=8;" parent="WIyWlLk6GJQsqaUBKTNV-1" source="t2t9TmfUXIdN22y3xSXs-46" target="t2t9TmfUXIdN22y3xSXs-46" edge="1">
          <mxGeometry relative="1" as="geometry" />
        </mxCell>
        <mxCell id="t2t9TmfUXIdN22y3xSXs-53" value="" style="edgeStyle=none;curved=1;rounded=0;orthogonalLoop=1;jettySize=auto;html=1;fontSize=12;startSize=8;endSize=8;" parent="WIyWlLk6GJQsqaUBKTNV-1" source="t2t9TmfUXIdN22y3xSXs-51" target="t2t9TmfUXIdN22y3xSXs-52" edge="1">
          <mxGeometry relative="1" as="geometry" />
        </mxCell>
        <mxCell id="t2t9TmfUXIdN22y3xSXs-51" value="gameModeSelection" style="ellipse;whiteSpace=wrap;html=1;fontSize=16;" parent="WIyWlLk6GJQsqaUBKTNV-1" vertex="1">
          <mxGeometry x="1170" y="40" width="159" height="80" as="geometry" />
        </mxCell>
        <mxCell id="t2t9TmfUXIdN22y3xSXs-52" value="führe aus bis error oder return ausgeführt wird" style="shape=process;whiteSpace=wrap;html=1;backgroundOutline=1;fontSize=16;" parent="WIyWlLk6GJQsqaUBKTNV-1" vertex="1">
          <mxGeometry x="1150" y="160" width="200" height="60" as="geometry" />
        </mxCell>
        <mxCell id="t2t9TmfUXIdN22y3xSXs-54" value="try" style="endArrow=classic;html=1;rounded=0;fontSize=12;startSize=8;endSize=8;curved=1;exitX=0.5;exitY=1;exitDx=0;exitDy=0;" parent="WIyWlLk6GJQsqaUBKTNV-1" source="t2t9TmfUXIdN22y3xSXs-52" target="t2t9TmfUXIdN22y3xSXs-55" edge="1">
          <mxGeometry width="50" height="50" relative="1" as="geometry">
            <mxPoint x="1110" y="520" as="sourcePoint" />
            <mxPoint x="1140" y="310" as="targetPoint" />
          </mxGeometry>
        </mxCell>
        <mxCell id="t2t9TmfUXIdN22y3xSXs-64" value="" style="edgeStyle=none;curved=1;rounded=0;orthogonalLoop=1;jettySize=auto;html=1;fontSize=12;startSize=8;endSize=8;" parent="WIyWlLk6GJQsqaUBKTNV-1" source="t2t9TmfUXIdN22y3xSXs-55" target="t2t9TmfUXIdN22y3xSXs-63" edge="1">
          <mxGeometry relative="1" as="geometry" />
        </mxCell>
        <mxCell id="t2t9TmfUXIdN22y3xSXs-55" value="Abfrage welcher Spielmodus gespielt werden soll" style="rounded=1;whiteSpace=wrap;html=1;fontSize=16;" parent="WIyWlLk6GJQsqaUBKTNV-1" vertex="1">
          <mxGeometry x="1060" y="310" width="150" height="70" as="geometry" />
        </mxCell>
        <mxCell id="t2t9TmfUXIdN22y3xSXs-56" value="except" style="endArrow=classic;html=1;rounded=0;fontSize=12;startSize=8;endSize=8;curved=1;" parent="WIyWlLk6GJQsqaUBKTNV-1" edge="1">
          <mxGeometry width="50" height="50" relative="1" as="geometry">
            <mxPoint x="1250" y="220" as="sourcePoint" />
            <mxPoint x="1380" y="290" as="targetPoint" />
          </mxGeometry>
        </mxCell>
        <mxCell id="t2t9TmfUXIdN22y3xSXs-59" value="" style="edgeStyle=none;curved=1;rounded=0;orthogonalLoop=1;jettySize=auto;html=1;fontSize=12;startSize=8;endSize=8;" parent="WIyWlLk6GJQsqaUBKTNV-1" source="t2t9TmfUXIdN22y3xSXs-57" target="t2t9TmfUXIdN22y3xSXs-58" edge="1">
          <mxGeometry relative="1" as="geometry" />
        </mxCell>
        <mxCell id="t2t9TmfUXIdN22y3xSXs-57" value="raise Value Error" style="rounded=1;whiteSpace=wrap;html=1;fontSize=16;" parent="WIyWlLk6GJQsqaUBKTNV-1" vertex="1">
          <mxGeometry x="1320" y="290" width="120" height="40" as="geometry" />
        </mxCell>
        <mxCell id="t2t9TmfUXIdN22y3xSXs-61" value="" style="edgeStyle=none;curved=1;rounded=0;orthogonalLoop=1;jettySize=auto;html=1;fontSize=12;startSize=8;endSize=8;" parent="WIyWlLk6GJQsqaUBKTNV-1" source="t2t9TmfUXIdN22y3xSXs-58" target="t2t9TmfUXIdN22y3xSXs-60" edge="1">
          <mxGeometry relative="1" as="geometry" />
        </mxCell>
        <mxCell id="t2t9TmfUXIdN22y3xSXs-58" value="Aufforderung zur erneuten eingabe" style="rounded=1;whiteSpace=wrap;html=1;fontSize=16;" parent="WIyWlLk6GJQsqaUBKTNV-1" vertex="1">
          <mxGeometry x="1320" y="370" width="120" height="60" as="geometry" />
        </mxCell>
        <mxCell id="t2t9TmfUXIdN22y3xSXs-62" style="edgeStyle=none;curved=1;rounded=0;orthogonalLoop=1;jettySize=auto;html=1;exitX=0.75;exitY=0;exitDx=0;exitDy=0;entryX=1;entryY=0.5;entryDx=0;entryDy=0;fontSize=12;startSize=8;endSize=8;" parent="WIyWlLk6GJQsqaUBKTNV-1" source="t2t9TmfUXIdN22y3xSXs-60" target="t2t9TmfUXIdN22y3xSXs-51" edge="1">
          <mxGeometry relative="1" as="geometry">
            <Array as="points">
              <mxPoint x="1460" y="240" />
            </Array>
          </mxGeometry>
        </mxCell>
        <mxCell id="t2t9TmfUXIdN22y3xSXs-60" value="continue" style="whiteSpace=wrap;html=1;fontSize=16;rounded=1;" parent="WIyWlLk6GJQsqaUBKTNV-1" vertex="1">
          <mxGeometry x="1400" y="455" width="120" height="25" as="geometry" />
        </mxCell>
        <mxCell id="t2t9TmfUXIdN22y3xSXs-65" value="else" style="edgeStyle=none;curved=1;rounded=0;orthogonalLoop=1;jettySize=auto;html=1;fontSize=12;startSize=8;endSize=8;entryX=0;entryY=0.25;entryDx=0;entryDy=0;" parent="WIyWlLk6GJQsqaUBKTNV-1" source="t2t9TmfUXIdN22y3xSXs-63" target="t2t9TmfUXIdN22y3xSXs-66" edge="1">
          <mxGeometry relative="1" as="geometry">
            <mxPoint x="1240" y="440" as="targetPoint" />
          </mxGeometry>
        </mxCell>
        <mxCell id="t2t9TmfUXIdN22y3xSXs-63" value="gameMode" style="rhombus;whiteSpace=wrap;html=1;fontSize=16;" parent="WIyWlLk6GJQsqaUBKTNV-1" vertex="1">
          <mxGeometry x="1090" y="405" width="80" height="80" as="geometry" />
        </mxCell>
        <mxCell id="t2t9TmfUXIdN22y3xSXs-66" value="raise Error" style="rounded=1;whiteSpace=wrap;html=1;fontSize=16;" parent="WIyWlLk6GJQsqaUBKTNV-1" vertex="1">
          <mxGeometry x="1220" y="440" width="90" height="40" as="geometry" />
        </mxCell>
        <mxCell id="t2t9TmfUXIdN22y3xSXs-68" value="case 2" style="endArrow=classic;html=1;rounded=0;fontSize=12;startSize=8;endSize=8;curved=1;exitX=0.5;exitY=1;exitDx=0;exitDy=0;entryX=0.5;entryY=0;entryDx=0;entryDy=0;" parent="WIyWlLk6GJQsqaUBKTNV-1" source="t2t9TmfUXIdN22y3xSXs-63" target="t2t9TmfUXIdN22y3xSXs-71" edge="1">
          <mxGeometry x="-0.007" width="50" height="50" relative="1" as="geometry">
            <mxPoint x="1140" y="470" as="sourcePoint" />
            <mxPoint x="1230" y="540" as="targetPoint" />
            <mxPoint as="offset" />
          </mxGeometry>
        </mxCell>
        <mxCell id="t2t9TmfUXIdN22y3xSXs-69" value="case 1" style="endArrow=classic;html=1;rounded=0;fontSize=12;startSize=8;endSize=8;curved=1;exitX=0.5;exitY=1;exitDx=0;exitDy=0;" parent="WIyWlLk6GJQsqaUBKTNV-1" source="t2t9TmfUXIdN22y3xSXs-63" target="t2t9TmfUXIdN22y3xSXs-70" edge="1">
          <mxGeometry width="50" height="50" relative="1" as="geometry">
            <mxPoint x="1130" y="620" as="sourcePoint" />
            <mxPoint x="1040" y="540" as="targetPoint" />
          </mxGeometry>
        </mxCell>
        <mxCell id="t2t9TmfUXIdN22y3xSXs-73" value="" style="edgeStyle=none;curved=1;rounded=0;orthogonalLoop=1;jettySize=auto;html=1;fontSize=12;startSize=8;endSize=8;" parent="WIyWlLk6GJQsqaUBKTNV-1" source="t2t9TmfUXIdN22y3xSXs-86" target="t2t9TmfUXIdN22y3xSXs-72" edge="1">
          <mxGeometry relative="1" as="geometry">
            <mxPoint x="1010" y="680" as="sourcePoint" />
          </mxGeometry>
        </mxCell>
        <mxCell id="t2t9TmfUXIdN22y3xSXs-88" style="edgeStyle=none;curved=1;rounded=0;orthogonalLoop=1;jettySize=auto;html=1;exitX=0.5;exitY=1;exitDx=0;exitDy=0;entryX=0.5;entryY=0;entryDx=0;entryDy=0;fontSize=12;startSize=8;endSize=8;" parent="WIyWlLk6GJQsqaUBKTNV-1" source="t2t9TmfUXIdN22y3xSXs-70" target="t2t9TmfUXIdN22y3xSXs-86" edge="1">
          <mxGeometry relative="1" as="geometry" />
        </mxCell>
        <mxCell id="t2t9TmfUXIdN22y3xSXs-70" value="Ausgabe, dass Einspieler Modus gewählt wurde" style="rounded=1;whiteSpace=wrap;html=1;fontSize=16;" parent="WIyWlLk6GJQsqaUBKTNV-1" vertex="1">
          <mxGeometry x="960" y="530" width="120" height="70" as="geometry" />
        </mxCell>
        <mxCell id="t2t9TmfUXIdN22y3xSXs-106" value="" style="edgeStyle=none;curved=1;rounded=0;orthogonalLoop=1;jettySize=auto;html=1;fontSize=12;startSize=8;endSize=8;" parent="WIyWlLk6GJQsqaUBKTNV-1" source="t2t9TmfUXIdN22y3xSXs-71" target="t2t9TmfUXIdN22y3xSXs-104" edge="1">
          <mxGeometry relative="1" as="geometry" />
        </mxCell>
        <mxCell id="t2t9TmfUXIdN22y3xSXs-71" value="Ausgabe, dass Zweispieler Modus gewählt wurde" style="rounded=1;whiteSpace=wrap;html=1;fontSize=16;" parent="WIyWlLk6GJQsqaUBKTNV-1" vertex="1">
          <mxGeometry x="1170" y="535" width="120" height="70" as="geometry" />
        </mxCell>
        <mxCell id="t2t9TmfUXIdN22y3xSXs-75" value="" style="edgeStyle=none;curved=1;rounded=0;orthogonalLoop=1;jettySize=auto;html=1;fontSize=12;startSize=8;endSize=8;" parent="WIyWlLk6GJQsqaUBKTNV-1" source="t2t9TmfUXIdN22y3xSXs-72" target="t2t9TmfUXIdN22y3xSXs-74" edge="1">
          <mxGeometry relative="1" as="geometry" />
        </mxCell>
        <mxCell id="t2t9TmfUXIdN22y3xSXs-72" value="Spieler 1 ist &quot;Der Computer&quot;" style="whiteSpace=wrap;html=1;fontSize=16;rounded=1;" parent="WIyWlLk6GJQsqaUBKTNV-1" vertex="1">
          <mxGeometry x="960" y="720" width="120" height="40" as="geometry" />
        </mxCell>
        <mxCell id="t2t9TmfUXIdN22y3xSXs-77" value="" style="edgeStyle=none;curved=1;rounded=0;orthogonalLoop=1;jettySize=auto;html=1;fontSize=12;startSize=8;endSize=8;" parent="WIyWlLk6GJQsqaUBKTNV-1" source="t2t9TmfUXIdN22y3xSXs-74" target="t2t9TmfUXIdN22y3xSXs-76" edge="1">
          <mxGeometry relative="1" as="geometry" />
        </mxCell>
        <mxCell id="t2t9TmfUXIdN22y3xSXs-74" value="Aufforderung den Namen des Users einzutragen" style="rounded=1;whiteSpace=wrap;html=1;fontSize=16;" parent="WIyWlLk6GJQsqaUBKTNV-1" vertex="1">
          <mxGeometry x="950" y="800" width="140" height="60" as="geometry" />
        </mxCell>
        <mxCell id="t2t9TmfUXIdN22y3xSXs-79" value="" style="edgeStyle=none;curved=1;rounded=0;orthogonalLoop=1;jettySize=auto;html=1;fontSize=12;startSize=8;endSize=8;" parent="WIyWlLk6GJQsqaUBKTNV-1" source="t2t9TmfUXIdN22y3xSXs-76" target="t2t9TmfUXIdN22y3xSXs-78" edge="1">
          <mxGeometry relative="1" as="geometry" />
        </mxCell>
        <mxCell id="t2t9TmfUXIdN22y3xSXs-76" value="counter auf 1 setzten und auffordern die Schiffe zu platzieren" style="whiteSpace=wrap;html=1;fontSize=16;rounded=1;" parent="WIyWlLk6GJQsqaUBKTNV-1" vertex="1">
          <mxGeometry x="935" y="880" width="170" height="70" as="geometry" />
        </mxCell>
        <mxCell id="t2t9TmfUXIdN22y3xSXs-81" value="" style="edgeStyle=none;curved=1;rounded=0;orthogonalLoop=1;jettySize=auto;html=1;fontSize=12;startSize=8;endSize=8;" parent="WIyWlLk6GJQsqaUBKTNV-1" source="t2t9TmfUXIdN22y3xSXs-78" target="t2t9TmfUXIdN22y3xSXs-80" edge="1">
          <mxGeometry relative="1" as="geometry" />
        </mxCell>
        <mxCell id="t2t9TmfUXIdN22y3xSXs-78" value="rufe für jedes Schiff placeShip auf" style="shape=process;whiteSpace=wrap;html=1;backgroundOutline=1;fontSize=16;size=0.125;" parent="WIyWlLk6GJQsqaUBKTNV-1" vertex="1">
          <mxGeometry x="930" y="990" width="180" height="80" as="geometry" />
        </mxCell>
        <mxCell id="t2t9TmfUXIdN22y3xSXs-83" value="" style="edgeStyle=none;curved=1;rounded=0;orthogonalLoop=1;jettySize=auto;html=1;fontSize=12;startSize=8;endSize=8;" parent="WIyWlLk6GJQsqaUBKTNV-1" source="t2t9TmfUXIdN22y3xSXs-80" target="t2t9TmfUXIdN22y3xSXs-82" edge="1">
          <mxGeometry relative="1" as="geometry" />
        </mxCell>
        <mxCell id="t2t9TmfUXIdN22y3xSXs-80" value="rufe für jedes cpu Schiff placeCpuShip auf" style="shape=process;whiteSpace=wrap;html=1;backgroundOutline=1;fontSize=16;" parent="WIyWlLk6GJQsqaUBKTNV-1" vertex="1">
          <mxGeometry x="935" y="1110" width="170" height="80" as="geometry" />
        </mxCell>
        <mxCell id="t2t9TmfUXIdN22y3xSXs-85" value="" style="edgeStyle=none;curved=1;rounded=0;orthogonalLoop=1;jettySize=auto;html=1;fontSize=12;startSize=8;endSize=8;" parent="WIyWlLk6GJQsqaUBKTNV-1" source="t2t9TmfUXIdN22y3xSXs-82" target="t2t9TmfUXIdN22y3xSXs-84" edge="1">
          <mxGeometry relative="1" as="geometry" />
        </mxCell>
        <mxCell id="t2t9TmfUXIdN22y3xSXs-82" value="Ausgabe dass der Computer seine Schiffe platziert hat" style="rounded=1;whiteSpace=wrap;html=1;fontSize=16;" parent="WIyWlLk6GJQsqaUBKTNV-1" vertex="1">
          <mxGeometry x="940" y="1249" width="160" height="60" as="geometry" />
        </mxCell>
        <mxCell id="t2t9TmfUXIdN22y3xSXs-84" value="return gameMode" style="whiteSpace=wrap;html=1;fontSize=16;rounded=1;" parent="WIyWlLk6GJQsqaUBKTNV-1" vertex="1">
          <mxGeometry x="960" y="1350" width="120" height="40" as="geometry" />
        </mxCell>
        <mxCell id="t2t9TmfUXIdN22y3xSXs-86" value="Ausgabe Spielregeln" style="rounded=1;whiteSpace=wrap;html=1;fontSize=16;" parent="WIyWlLk6GJQsqaUBKTNV-1" vertex="1">
          <mxGeometry x="960" y="640" width="120" height="40" as="geometry" />
        </mxCell>
        <mxCell id="t2t9TmfUXIdN22y3xSXs-87" style="edgeStyle=none;curved=1;rounded=0;orthogonalLoop=1;jettySize=auto;html=1;exitX=0.5;exitY=0;exitDx=0;exitDy=0;fontSize=12;startSize=8;endSize=8;" parent="WIyWlLk6GJQsqaUBKTNV-1" source="t2t9TmfUXIdN22y3xSXs-86" target="t2t9TmfUXIdN22y3xSXs-86" edge="1">
          <mxGeometry relative="1" as="geometry" />
        </mxCell>
        <mxCell id="t2t9TmfUXIdN22y3xSXs-90" value="" style="edgeStyle=none;curved=1;rounded=0;orthogonalLoop=1;jettySize=auto;html=1;fontSize=12;startSize=8;endSize=8;" parent="WIyWlLk6GJQsqaUBKTNV-1" source="t2t9TmfUXIdN22y3xSXs-104" target="t2t9TmfUXIdN22y3xSXs-92" edge="1">
          <mxGeometry relative="1" as="geometry">
            <mxPoint x="1240" y="680" as="sourcePoint" />
          </mxGeometry>
        </mxCell>
        <mxCell id="t2t9TmfUXIdN22y3xSXs-91" value="" style="edgeStyle=none;curved=1;rounded=0;orthogonalLoop=1;jettySize=auto;html=1;fontSize=12;startSize=8;endSize=8;entryX=0.5;entryY=0;entryDx=0;entryDy=0;" parent="WIyWlLk6GJQsqaUBKTNV-1" source="t2t9TmfUXIdN22y3xSXs-92" target="t2t9TmfUXIdN22y3xSXs-96" edge="1">
          <mxGeometry relative="1" as="geometry">
            <mxPoint x="1255.625" y="790.0000000000002" as="targetPoint" />
          </mxGeometry>
        </mxCell>
        <mxCell id="t2t9TmfUXIdN22y3xSXs-92" value="Spieler 1 auffordern seinen Namen ein zu geben" style="whiteSpace=wrap;html=1;fontSize=16;rounded=1;" parent="WIyWlLk6GJQsqaUBKTNV-1" vertex="1">
          <mxGeometry x="1170" y="710" width="150" height="60" as="geometry" />
        </mxCell>
        <mxCell id="t2t9TmfUXIdN22y3xSXs-95" value="" style="edgeStyle=none;curved=1;rounded=0;orthogonalLoop=1;jettySize=auto;html=1;fontSize=12;startSize=8;endSize=8;" parent="WIyWlLk6GJQsqaUBKTNV-1" source="t2t9TmfUXIdN22y3xSXs-96" target="t2t9TmfUXIdN22y3xSXs-98" edge="1">
          <mxGeometry relative="1" as="geometry" />
        </mxCell>
        <mxCell id="t2t9TmfUXIdN22y3xSXs-96" value="counter auf 1 setzten und Spieler 1 auffordern seine Schiffe zu platzieren" style="whiteSpace=wrap;html=1;fontSize=16;rounded=1;" parent="WIyWlLk6GJQsqaUBKTNV-1" vertex="1">
          <mxGeometry x="1170" y="800" width="170" height="70" as="geometry" />
        </mxCell>
        <mxCell id="t2t9TmfUXIdN22y3xSXs-97" value="" style="edgeStyle=none;curved=1;rounded=0;orthogonalLoop=1;jettySize=auto;html=1;fontSize=12;startSize=8;endSize=8;" parent="WIyWlLk6GJQsqaUBKTNV-1" target="t2t9TmfUXIdN22y3xSXs-100" edge="1">
          <mxGeometry relative="1" as="geometry">
            <mxPoint x="1265.25" y="1281" as="sourcePoint" />
          </mxGeometry>
        </mxCell>
        <mxCell id="t2t9TmfUXIdN22y3xSXs-110" value="" style="edgeStyle=none;curved=1;rounded=0;orthogonalLoop=1;jettySize=auto;html=1;fontSize=12;startSize=8;endSize=8;" parent="WIyWlLk6GJQsqaUBKTNV-1" source="t2t9TmfUXIdN22y3xSXs-98" target="t2t9TmfUXIdN22y3xSXs-109" edge="1">
          <mxGeometry relative="1" as="geometry" />
        </mxCell>
        <mxCell id="t2t9TmfUXIdN22y3xSXs-98" value="rufe für jedes Schiff&amp;nbsp; von Spieler 1 placeShip auf" style="shape=process;whiteSpace=wrap;html=1;backgroundOutline=1;fontSize=16;size=0.125;" parent="WIyWlLk6GJQsqaUBKTNV-1" vertex="1">
          <mxGeometry x="1165" y="910" width="180" height="80" as="geometry" />
        </mxCell>
        <mxCell id="t2t9TmfUXIdN22y3xSXs-99" value="" style="edgeStyle=none;curved=1;rounded=0;orthogonalLoop=1;jettySize=auto;html=1;fontSize=12;startSize=8;endSize=8;entryX=0.498;entryY=0;entryDx=0;entryDy=0;entryPerimeter=0;" parent="WIyWlLk6GJQsqaUBKTNV-1" source="t2t9TmfUXIdN22y3xSXs-100" target="t2t9TmfUXIdN22y3xSXs-114" edge="1">
          <mxGeometry relative="1" as="geometry">
            <mxPoint x="1265.25" y="1460" as="targetPoint" />
          </mxGeometry>
        </mxCell>
        <mxCell id="t2t9TmfUXIdN22y3xSXs-100" value="rufe für jedes SChiff von Spieler 2 placeShip auf" style="shape=process;whiteSpace=wrap;html=1;backgroundOutline=1;fontSize=16;" parent="WIyWlLk6GJQsqaUBKTNV-1" vertex="1">
          <mxGeometry x="1180.25" y="1321" width="170" height="80" as="geometry" />
        </mxCell>
        <mxCell id="t2t9TmfUXIdN22y3xSXs-103" value="return gameMode" style="whiteSpace=wrap;html=1;fontSize=16;rounded=1;" parent="WIyWlLk6GJQsqaUBKTNV-1" vertex="1">
          <mxGeometry x="1200.5" y="1520" width="120" height="40" as="geometry" />
        </mxCell>
        <mxCell id="t2t9TmfUXIdN22y3xSXs-104" value="Ausgabe Spielregeln" style="rounded=1;whiteSpace=wrap;html=1;fontSize=16;" parent="WIyWlLk6GJQsqaUBKTNV-1" vertex="1">
          <mxGeometry x="1190" y="640" width="120" height="40" as="geometry" />
        </mxCell>
        <mxCell id="t2t9TmfUXIdN22y3xSXs-105" style="edgeStyle=none;curved=1;rounded=0;orthogonalLoop=1;jettySize=auto;html=1;exitX=0.5;exitY=0;exitDx=0;exitDy=0;fontSize=12;startSize=8;endSize=8;" parent="WIyWlLk6GJQsqaUBKTNV-1" source="t2t9TmfUXIdN22y3xSXs-104" target="t2t9TmfUXIdN22y3xSXs-104" edge="1">
          <mxGeometry relative="1" as="geometry" />
        </mxCell>
        <mxCell id="t2t9TmfUXIdN22y3xSXs-107" value="counter auf 1 setzten und Spieler 2 auffordern seine Schiffe zu platzieren" style="whiteSpace=wrap;html=1;fontSize=16;rounded=1;" parent="WIyWlLk6GJQsqaUBKTNV-1" vertex="1">
          <mxGeometry x="1179.75" y="1220" width="170" height="70" as="geometry" />
        </mxCell>
        <mxCell id="t2t9TmfUXIdN22y3xSXs-112" value="" style="edgeStyle=none;curved=1;rounded=0;orthogonalLoop=1;jettySize=auto;html=1;fontSize=12;startSize=8;endSize=8;" parent="WIyWlLk6GJQsqaUBKTNV-1" source="t2t9TmfUXIdN22y3xSXs-109" target="t2t9TmfUXIdN22y3xSXs-111" edge="1">
          <mxGeometry relative="1" as="geometry" />
        </mxCell>
        <mxCell id="t2t9TmfUXIdN22y3xSXs-109" value="console leeren" style="rounded=1;whiteSpace=wrap;html=1;fontSize=16;" parent="WIyWlLk6GJQsqaUBKTNV-1" vertex="1">
          <mxGeometry x="1195.5" y="1030" width="120" height="40" as="geometry" />
        </mxCell>
        <mxCell id="t2t9TmfUXIdN22y3xSXs-113" value="" style="edgeStyle=none;curved=1;rounded=0;orthogonalLoop=1;jettySize=auto;html=1;fontSize=12;startSize=8;endSize=8;" parent="WIyWlLk6GJQsqaUBKTNV-1" source="t2t9TmfUXIdN22y3xSXs-111" target="t2t9TmfUXIdN22y3xSXs-107" edge="1">
          <mxGeometry relative="1" as="geometry" />
        </mxCell>
        <mxCell id="t2t9TmfUXIdN22y3xSXs-111" value="Spieler 2 auffordern seinen Namen ein zu geben" style="rounded=1;whiteSpace=wrap;html=1;fontSize=16;" parent="WIyWlLk6GJQsqaUBKTNV-1" vertex="1">
          <mxGeometry x="1190.5" y="1100" width="135" height="80" as="geometry" />
        </mxCell>
        <mxCell id="t2t9TmfUXIdN22y3xSXs-115" value="" style="edgeStyle=none;curved=1;rounded=0;orthogonalLoop=1;jettySize=auto;html=1;fontSize=12;startSize=8;endSize=8;" parent="WIyWlLk6GJQsqaUBKTNV-1" source="t2t9TmfUXIdN22y3xSXs-114" target="t2t9TmfUXIdN22y3xSXs-103" edge="1">
          <mxGeometry relative="1" as="geometry" />
        </mxCell>
        <mxCell id="t2t9TmfUXIdN22y3xSXs-114" value="console leeren" style="rounded=1;whiteSpace=wrap;html=1;fontSize=16;" parent="WIyWlLk6GJQsqaUBKTNV-1" vertex="1">
          <mxGeometry x="1205.5" y="1440" width="120" height="40" as="geometry" />
        </mxCell>
      </root>
    </mxGraphModel>
  </diagram>
</mxfile>
